<svg xmlns="http://www.w3.org/2000/svg" viewBox="0 0 1000 1000" enable-background="new 0 0 1000 1000"><path d="m103 477c27.9-95.2 71.3-185.8 90.6-283.5 5.4-27.2 8.8-54.9 9.4-82.7-3.9.5-7.9 1.1-11.8 1.6 35.1 83.5 72.1 166.2 111.3 247.8 11.2 23.4 22.6 46.6 34.1 69.8 3.4 6.9 13.8.8 10.4-6.1-40.1-80.6-78.2-162.2-114.3-244.7-10.2-23.3-20.2-46.6-30-70-2.5-5.9-11.6-5.7-11.8 1.6-2.3 98.9-40.6 191.7-73.4 283.6-9.4 26.2-18.4 52.6-26.2 79.4-2 7.4 9.6 10.6 11.7 3.2"/><path d="m76.9 327.9c63.1 6.5 126.9 11.6 187.9-9.9 16.6-5.8 33.2-12.4 51-13.2 7.7-.3 7.7-12.3 0-12-15.5.7-30.2 5.1-44.7 10.2-14.8 5.2-29.5 10.3-45 13.4-31.2 6.3-63.3 6.2-94.9 4.3-18.1-1.1-36.2-3-54.2-4.8-7.8-.8-7.7 11.2-.1 12"/><path d="m347.6 432c47-27.8 101.5-42 156.1-40.7 6.4.2 12.7.5 19.1 1.1 6.9.6 14.4 2.2 20.8-1.2 5-2.7 8-7.5 10.6-12.3 3.6-6.6 7-13.3 10.4-20.1 6.7-13.4 12.7-27.1 17.2-41.4 4.3-13.7 7.5-27.8 12-41.5 9.7-29.4 25-56.9 44.5-80.9-3.4-1.4-6.8-2.8-10.2-4.2 8 81.6 17.6 163 28.9 244.2 1.1 7.6 12.6 4.4 11.6-3.2-11.1-80.1-20.6-160.5-28.5-241-.4-4.6-6.6-8.7-10.2-4.2-17.3 21.1-31.3 44.5-41.6 69.8-10.8 26.4-15.2 54.9-26.8 81-3 6.9-6.4 13.6-9.8 20.4-3.2 6.3-6.2 13.1-10.1 19-3.8 5.8-9.1 4.6-15.3 4-6.9-.7-13.8-1.2-20.8-1.4-26.5-.8-53.3 2-79.1 8.1-29.8 7-58.5 18.6-84.8 34.2-6.7 3.9-.7 14.3 6 10.3"/><path d="m663.1 441.1c7.7 0 7.7-12 0-12-7.7 0-7.7 12 0 12"/><path d="m666.5 446.1c42.9 0 85.9.1 128.8.1-1.7-3-3.5-6-5.2-9-7 9.4-16.5 16.4-26 23.1-10.2 7.3-20.6 14.3-31.1 21.2-21 13.8-42.4 26.9-64.3 39.3-4.2 2.4-3.8 10 1.4 11 48.5 9 97.8 12.7 147.1 10.8 7.7-.3 7.7-12.3 0-12-48.2 1.8-96.5-1.6-143.9-10.4.5 3.7 1 7.3 1.4 11 22.9-13 45.4-26.8 67.4-41.3 10.6-7 21.1-14.2 31.5-21.7 10-7.2 19.4-14.9 26.8-24.9 2.8-3.8-1-9-5.2-9-42.9 0-85.9-.1-128.8-.1-7.6-.1-7.7 11.9.1 11.9"/><path d="m672.3 575.8c0 17.4-.9 35.1 0 52.5.4 7.5 3.9 12.8 11.1 15.5 7.5 2.8 15.8 4.2 23.7 5.5 33.7 5.7 68.3 4.6 102.2 2.8 24.3-1.3 55.8-8.7 57-38.5.6-13.9-6.7-27.2-17.4-35.6-11.9-9.3-27-13.1-41.9-13.9-19.8-1.1-39.9 1.9-59.7 2.5-20.7.7-41.4.4-62.1-.7-7.7-.4-7.7 11.6 0 12 31.5 1.6 63 1.1 94.5-1.1 24.2-1.7 61-3.4 72.4 24.1 4.3 10.4 2.5 22.5-6.6 29.7-8.4 6.6-20.2 8.4-30.6 9.2-28.9 2.4-58.7 2.9-87.6.2-8.2-.8-16.3-1.9-24.4-3.6-4.3-.9-8.6-1.8-12.8-3-3.7-1.1-5.5-1.7-5.7-5.7-1-17.1 0-34.6 0-51.8-.1-7.8-12.1-7.9-12.1-.1"/><path d="m693.7 708.3c21.9 2.4 44 1.6 65.7-2.3 10.8-1.9 21.2-4.9 31.7-8.1 10.8-3.3 21.6-6.4 33.1-5.7 7.7.5 7.7-11.5 0-12-22-1.5-43 9.3-64.3 13.5-21.8 4.3-44.1 5-66.1 2.6-7.8-.9-7.7 11.1-.1 12"/><path d="m734.2 703.2c2.8 7.8 6.5 15 11.5 21.6 4.9 6.5 11.8 11.2 16.7 17.6 5.2 6.8 3.3 17.2 3.3 25.3-.1 10.1-.1 20.1-.2 30.2 0 7.7 12 7.7 12 0 .1-10.4.1-20.8.2-31.1.1-8.7 1.2-18.4-2.7-26.5-3.4-7.3-10.2-11.9-15.6-17.6-6.1-6.5-10.7-14.2-13.6-22.5-2.6-7.4-14.2-4.3-11.6 3"/><path d="m621 821.7c15.4 4.7 29.2-4.8 41-13.5 13.1-9.6 27-18 41.7-25-2.9-1.2-5.9-2.4-8.8-3.6 6.3 15.3 1.4 32.1-.5 47.8-2.2 17.7-2.6 35.6-1.4 53.5.5 7.7 12.5 7.7 12 0-1.2-18.5-.8-37.2 1.6-55.6 2.2-16.2 6.3-33.1-.2-48.9-1.5-3.8-5-5.4-8.8-3.6-13 6.3-25.5 13.5-37.3 21.9-10.1 7.1-22.7 19.6-36.2 15.5-7.3-2.3-10.5 9.3-3.1 11.5"/><path d="m693.1 831.7c-12.6-9.3-22.2-21.7-28.7-35.8-3.2-7-13.5-.9-10.4 6.1 7.4 16.1 18.8 29.7 33 40.1 6.3 4.6 12.3-5.8 6.1-10.4"/><path d="m537.3 918.2c25.5-14.6 49.6-31.6 71.8-50.7 5.9-5-2.7-13.5-8.5-8.5-21.5 18.5-44.8 34.8-69.4 48.8-6.7 3.8-.7 14.2 6.1 10.4"/><path d="m563.6 852.4c23.9 16.3 48.3 32.5 76.1 41.3 7.4 2.3 10.5-9.2 3.2-11.6-26.8-8.5-50.2-24.4-73.2-40.1-6.4-4.3-12.4 6.1-6.1 10.4"/><path d="m353.6 944.3c15-17.8 30-35.7 45-53.5 7.3-8.7 14.6-17.3 21.9-26 3.2-3.8 6.3-8.2 10.5-11 4.1-2.8 9.4-3.6 14.3-4.1 16.4-1.7 34.2 0 48.7 8.5 3.5 2 6.7 4.4 9.5 7.2 1.3 1.2 2.9 2.7 3.9 4.2.8 1.3.8-.2.6.8-.2.9-3.2 1.9-3.9 2.2-9.4 4.8-19.7 7.8-29.8 10.5-24.3 6.6-48.7 12.9-73 19.4-5.5 1.4-5.3 8-1.4 11 25.8 19.5 57.1 31.3 86.3 44.8 7 3.2 13.1-7.1 6.1-10.4-29.1-13.5-60.5-25.3-86.3-44.8-.5 3.7-1 7.3-1.4 11 24.9-6.6 49.9-13 74.8-19.9 11.5-3.1 23.7-6.6 33.9-12.8 3.8-2.3 7.1-5.6 7.3-10.3.2-5.2-3.9-9.7-7.3-13.1-13.7-14.1-33.7-20-53-20.7-10-.4-21.4 0-30.7 4-11.3 4.7-18.7 16.9-26.3 25.9-19.3 22.9-38.6 45.9-57.8 68.8-5.3 5.7 3.1 14.2 8.1 8.3"/><path d="m227.5 955.6c25.6-2.8 48.1-15.8 66.6-33.3 9.9-9.3 18.5-19.8 26.7-30.6 8.2-10.8 16.5-21.7 23.7-33.1 7.4-11.7 12-24 13.1-37.9.9-11.6 2.1-25.5-2.8-36.4-4.6-10.3-14.5-14.9-25.2-16-9-1-24.7-2.2-28.2 8.7-1.8 5.8-.2 13.6 1.4 19.3 1.8 6.3 5 12.4 9.6 17.1 8.8 8.8 22.7 11.7 33.8 5.4 6.7-3.8.7-14.2-6.1-10.4-7.4 4.1-16.4.6-21.3-5.8-2.6-3.4-4.2-7.6-5.1-11.7-.5-2.2-.8-4.5-1-6.8-.1-2.4-.8-3.2 1.5-3.9 3.3-1 8.2-.4 11.6-.2 4.1.2 8.3.8 11.9 2.8 8.1 4.4 8.4 14.6 8.3 22.7-.1 10.6-.3 21.4-3.9 31.5-3.6 9.9-9.9 18.7-16 27.2-12.3 17.2-24.7 34.5-40 49.1-16.1 15.4-36.3 27.9-58.8 30.4-7.4.8-7.5 12.8.2 11.9"/><path d="m90.3 491.9c36.7 51.8 51.8 115.4 59 177.5 3.9 33.8 5.7 67.9 7.6 101.8 1.7 30.7 2.9 61.4.7 92.1-2.4 33.6-9.2 67.4-25 97.4-3.6 6.8 6.8 12.9 10.4 6.1 29.3-55.6 29.6-120.5 26.6-181.7-3.2-68.1-6.1-137.9-24.9-203.8-9.6-33.8-23.6-66.7-44-95.5-4.4-6.2-14.9-.2-10.4 6.1"/><path d="m46.4 925.8c12.3-26.3 30.1-49.2 48.8-71.2 18.1-21.3 37-42.4 59.5-59.2 23.4-17.5 50.1-29 77.6-38.1 29.3-9.8 59.2-18.1 88.8-27 29.8-8.9 59.5-18.6 89.7-26 31.2-7.7 62.5-10.5 94.6-10.5 31.5 0 63 .8 94.5.4 31.6-.3 63.1-1.3 94.6-2.9 71.5-3.6 142.7-10.4 213.6-20.2 7.6-1.1 4.4-12.6-3.2-11.6-63.9 8.9-128.2 15.1-192.7 18.9-64.4 3.7-128.7 4.2-193.1 3.5-31.8-.3-63.5.7-94.8 7.1-30.9 6.3-61.1 16.2-91.3 25.2-30.4 9.1-60.9 17.9-91.1 27.4-27.9 8.7-55.8 18.8-80.5 34.5-27 17.2-49.5 40.5-70.3 64.7-21 24.3-41.5 49.6-55.2 78.9-3.1 7 7.2 13.1 10.5 6.1"/><path d="m270.9 538.4c-1.3-12.7 3.5-24.3 13.4-32.3 5.2-4.1 11.1-7.5 16.8-10.8 6.1-3.6 12.3-7 19.1-9.1 12.9-4.1 24.9-1.7 35 7.3 4.3 3.8 8 8.2 11.6 12.7 3.9 4.8 9.4 10.6 10.1 17 .8 7.6 12.8 7.7 12 0-.9-8.7-5.5-15-10.7-21.8-4.5-5.8-9.1-11.5-14.5-16.4-12.2-10.9-27.2-15.5-43.3-11.4-8.1 2-15.8 5.8-23 9.9-7.4 4.2-15 8.7-21.6 14.1-12 9.9-18.6 25.2-16.9 40.8.8 7.7 12.8 7.7 12 0"/><path d="m488.1 518.1c3.1-10.6 6.4-22.2 14.1-30.4 9.4-9.9 24.7-9.9 37.5-11.4 7.3-.8 14.7-1.6 22.1-2.2 3.8-.3 7.7-.6 11.5-.9 2.8-.2 6.4-1.1 8.7 1.1 2.2 2.1 3.6 5.9 4.9 8.6 1.6 3.2 2.9 6.4 4 9.8 2.2 6.6 3.7 13.5 4.4 20.4.7 7.6 12.7 7.7 12 0-.8-8.6-2.5-17.1-5.4-25.3-2.6-7.1-5.7-15-10.5-20.9-5.7-7-13.8-6.1-21.9-5.5-9.3.7-18.6 1.6-27.8 2.6-15.9 1.8-34.1 2.1-46.4 13.7-10.3 9.7-14.8 23.9-18.7 37.1-2.2 7.5 9.3 10.7 11.5 3.3"/><path d="m419.1 573.3c97-10.9 193.6-24.9 289.8-42 96.6-17.2 192.7-37.4 288-60.7 53.9-13.2 107.6-27.4 161-42.5 1.8-.5 1.3-2.4-.5-1.9-94.1 26.7-189 50.4-284.6 71-96.1 20.7-192.9 38.3-290.1 52.8-54.3 8.1-108.7 15.2-163.2 21.3-1.7.1-2.4 2.2-.4 2"/><path d="m433.3 593.1c128.6 2.1 257.3-3.6 385.2-17.4 36-3.9 72-8.4 107.9-13.5 1.5-.2 2.3-2.3.3-2-126.5 18.1-254.2 28.4-382 30.8-36.8.7-73.5.7-110.3.1-1.4-.1-3 1.9-1.1 2"/><path d="m469.5 620.9c63.3 12.6 127.3 21 191.7 25.1 64.4 4.1 129 4 193.4-.5 36.6-2.5 73.1-6.4 109.4-11.7 1.4-.2 2.4-1.8.4-1.5-127.9 18.5-258.1 20-386.4 4.2-35.8-4.4-71.4-10.1-106.8-17.2-.8-.1-3.4 1.3-1.7 1.6"/><path d="m10.8 578.2c100.6 24.2 204.9 32.5 308.1 24.5 29.5-2.3 58.8-5.9 87.9-10.8 1.5-.3 2.3-2.3.3-2-101.4 17.1-205.3 18.2-307.1 3.4-29.4-4.3-58.7-10-87.6-16.9-1.1-.4-3.3 1.3-1.6 1.8"/><path d="m77.5 727.7c44.7-24.4 92.7-42.3 142.2-54.5 48.5-11.9 99.1-15.6 146.4-32.1 24.9-8.7 48.5-20.8 70.6-35.3 1.2-.8-1.7-.5-2.2-.1-20.9 13.8-43.3 25.3-66.9 33.8-24.8 8.9-50.6 14-76.5 18.6-47.7 8.5-94.6 18.3-140.2 35.2-25.8 9.5-50.9 20.9-75.1 34.1-1.7.8 1 .7 1.7.3"/><path d="m67.4 658c102.6 6.4 206-2.4 306.1-26.1 28.8-6.8 57.2-14.9 85.3-24.1 1.7-.6 1.3-2.4-.5-1.8-97.3 32-199.2 49.5-301.6 51.9-29.4.7-58.9 0-88.3-1.8-1.3-.1-3 1.8-1 1.9"/><path d="m427.8 625.8c15.7 0 30.7-13.8 30-30-.7-16.3-13.2-30-30-30-15.7 0-30.7 13.8-30 30 .7 16.3 13.2 30 30 30"/><g fill="#c1272d"><path d="m325.8 823.8c15.7 0 30.7-13.8 30-30-.7-16.3-13.2-30-30-30-15.7 0-30.7 13.8-30 30 .7 16.3 13.2 30 30 30"/><path d="m319.8 544.8c15.7 0 30.7-13.8 30-30-.7-16.3-13.2-30-30-30-15.7 0-30.7 13.8-30 30 .7 16.3 13.2 30 30 30"/><path d="m529.8 529.8c15.7 0 30.7-13.8 30-30-.7-16.3-13.2-30-30-30-15.7 0-30.7 13.8-30 30 .8 16.3 13.2 30 30 30"/></g><path d="m349.1 49.6h584.5v93h-584.5z"/><g fill="#fff"><path d="m399.5 102.6c0 6.3-1.3 10.8-4 13.7s-7 4.3-12.9 4.3c-5.7 0-9.9-1.4-12.4-4.1-2.6-2.8-3.8-7.1-3.8-13.2v-30.9h6.7v29.9c0 4.8.7 8.1 2.1 10s3.9 2.8 7.5 2.8c3.8 0 6.4-1 7.9-2.9 1.5-1.9 2.3-5.4 2.3-10.3v-29.5h6.7v30.2z"/><path d="m444.1 95.6c0 7.8-1.8 13.7-5.4 17.9-3.6 4.2-8.7 6.3-15.5 6.3h-13v-47.4h10.9c7.7 0 13.5 1.9 17.2 5.8 3.9 3.8 5.8 9.6 5.8 17.4m-6.8 0c0-6.2-1.3-10.7-3.9-13.5-2.6-2.8-6.7-4.2-12.3-4.2h-4.1v36.5h5.7c5 0 8.7-1.6 11.1-4.7 2.3-3.2 3.5-7.9 3.5-14.1"/><path d="m527.3 119.8l-4.9-13.4h-19.8l-4.8 13.4h-6.8l17.9-47.4h7.6l17.6 47.4h-6.8m-14.7-42.4l-.4 1.4-2.4 7.5-5.3 14.9h16.3l-6.1-17.6-2.1-6.2"/><path d="m564.7 119.8v-24.4c0-3.2-.6-5.6-1.8-7.1s-3.2-2.3-5.9-2.3c-2.9 0-5.3 1.1-7.2 3.2-1.9 2.1-2.8 5-2.8 8.6v22h-6.3v-29.9c0-4.4-.1-7.1-.2-8.1h6c0 .1 0 .4.1.9 0 .5.1 1.1.1 1.8s.1 1.9.1 3.8h.1c2.5-4.8 6.5-7.2 12.2-7.2 4.1 0 7.1 1.1 9.1 3.3 2 2.2 3 5.6 3 10.1v25.3h-6.5"/><path d="m607.9 119.8v-24.4c0-3.2-.6-5.6-1.8-7.1s-3.2-2.3-5.9-2.3c-2.9 0-5.3 1.1-7.2 3.2-1.9 2.1-2.8 5-2.8 8.6v22h-6.3v-29.9c0-4.4-.1-7.1-.2-8.1h6c0 .1 0 .4.1.9 0 .5.1 1.1.1 1.8s.1 1.9.1 3.8h.1c2.5-4.8 6.5-7.2 12.2-7.2 4.1 0 7.1 1.1 9.1 3.3 2 2.2 3 5.6 3 10.1v25.3h-6.5"/><path d="m659.1 100.7c0 6.4-1.5 11.3-4.4 14.7-2.9 3.4-7.2 5.1-12.7 5.1-5.4 0-9.6-1.7-12.5-5.1-2.9-3.4-4.3-8.3-4.3-14.6 0-6.5 1.5-11.5 4.4-14.7 3-3.3 7.2-4.9 12.6-4.9 5.7 0 10 1.6 12.8 4.9 2.8 3.1 4.1 8 4.1 14.6m-6.6 0c0-5-.8-8.8-2.4-11.3-1.6-2.5-4.2-3.7-7.8-3.7-3.6 0-6.3 1.3-8 3.8s-2.5 6.3-2.5 11.2c0 4.9.8 8.7 2.5 11.2s4.2 3.8 7.6 3.8c3.7 0 6.4-1.3 8.1-3.8 1.7-2.4 2.5-6.1 2.5-11.2"/><path d="m670.5 86.7v-5h6l2-9.9h4.2v9.9h15.2v5h-15.2v22.9c0 1.9.5 3.2 1.5 4.1 1 .9 2.6 1.3 4.9 1.3 3.1 0 6.6-.4 10.4-1.2v4.8c-4 1.1-7.9 1.6-11.8 1.6-3.8 0-6.6-.8-8.5-2.4-1.9-1.6-2.8-4.1-2.8-7.6v-23.5h-5.9"/><path d="m745.7 115.9c.6 0 1.3-.1 2.1-.2v3.9c-1.6.4-3.2.6-4.9.6-2.3 0-4-.6-5.1-1.8s-1.7-3.2-1.8-5.8h-.2c-1.5 2.8-3.3 4.9-5.4 6.1s-4.6 1.9-7.7 1.9c-3.7 0-6.5-1-8.4-3-1.9-2-2.8-4.8-2.8-8.3 0-8.2 5.3-12.3 16-12.4l8.3-.1v-2.1c0-3.1-.6-5.3-1.9-6.6-1.2-1.3-3.2-2-5.9-2-2.8 0-4.8.5-6 1.5s-1.9 2.5-2.2 4.6l-6.6-.6c1.1-6.8 6-10.3 14.9-10.3 4.7 0 8.2 1.1 10.6 3.3 2.4 2.2 3.5 5.4 3.5 9.5v16.4c0 1.9.2 3.3.7 4.2s1.4 1.2 2.8 1.2m-21.4-.2c2.3 0 4.2-.5 6-1.6 1.7-1.1 3.1-2.5 4-4.3 1-1.8 1.4-3.7 1.4-5.6v-3.2l-6.7.1c-2.8 0-4.9.4-6.3.9s-2.6 1.4-3.4 2.6-1.2 2.7-1.2 4.6c0 1.9.5 3.5 1.6 4.6 1 1.3 2.6 1.9 4.6 1.9"/><path d="m756.9 86.7v-5h6l2-9.9h4.2v9.9h15.2v5h-15.2v22.9c0 1.9.5 3.2 1.5 4.1 1 .9 2.6 1.3 4.9 1.3 3.1 0 6.6-.4 10.4-1.2v4.8c-4 1.1-7.9 1.6-11.8 1.6-3.8 0-6.6-.8-8.5-2.4-1.9-1.6-2.8-4.1-2.8-7.6v-23.5h-5.9"/><path d="m830.1 87.5c-2.6-.4-5.1-.7-7.5-.7-3.8 0-6.8 1.4-9.1 4.3-2.3 2.8-3.5 6.4-3.5 10.8v17.9h-6.3v-24.7c0-1.8-.2-3.9-.5-6.3-.3-2.4-.8-4.8-1.4-7.1h6c.9 3.2 1.5 6.2 1.7 8.8h.2c1.2-2.6 2.3-4.6 3.4-5.8s2.5-2.2 4-2.8c1.5-.6 3.4-.9 5.7-.9 2.4 0 4.9.2 7.2.6v5.9z"/><path d="m862.8 114.8h13.4v5h-34.5v-5h14.8v-28.1h-11.2v-5h17.5v33.1m-7-40.4v-6.8h7v6.8h-7"/><path d="m901.4 90.4l11.7-18h7.2l-15.3 22.6 16.7 24.8h-7.2l-13.1-20.1-13.1 20.1h-7.2l16.7-24.8-15.3-22.6h7.2l11.7 18"/></g></svg>