<?xml version="1.0" encoding="UTF-8" standalone="no"?>
<!-- Created with Inkscape (http://www.inkscape.org/) -->

<svg
   xmlns:dc="http://purl.org/dc/elements/1.1/"
   xmlns:cc="http://creativecommons.org/ns#"
   xmlns:rdf="http://www.w3.org/1999/02/22-rdf-syntax-ns#"
   xmlns:svg="http://www.w3.org/2000/svg"
   xmlns="http://www.w3.org/2000/svg"
   xmlns:xlink="http://www.w3.org/1999/xlink"
   xmlns:sodipodi="http://sodipodi.sourceforge.net/DTD/sodipodi-0.dtd"
   xmlns:inkscape="http://www.inkscape.org/namespaces/inkscape"
   width="210mm"
   height="297mm"
   viewBox="0 0 210 297"
   version="1.1"
   id="svg8"
   inkscape:version="0.92.4 (5da689c313, 2019-01-14)"
   sodipodi:docname="final logo ud_annotatrix.svg">
  <defs
     id="defs2">
    <linearGradient
       inkscape:collect="always"
       id="linearGradient907">
      <stop
         style="stop-color:#ff2aff;stop-opacity:1"
         offset="0"
         id="stop903" />
      <stop
         style="stop-color:#0000ff;stop-opacity:1"
         offset="1"
         id="stop905" />
    </linearGradient>
    <linearGradient
       inkscape:collect="always"
       id="linearGradient899">
      <stop
         style="stop-color:#d40000;stop-opacity:1"
         offset="0"
         id="stop895" />
      <stop
         style="stop-color:#ff6600;stop-opacity:1"
         offset="1"
         id="stop897" />
    </linearGradient>
    <linearGradient
       inkscape:collect="always"
       xlink:href="#linearGradient899"
       id="linearGradient901"
       x1="294.68762"
       y1="93.640442"
       x2="432.95911"
       y2="226.68808"
       gradientUnits="userSpaceOnUse"
       gradientTransform="matrix(0.33001051,0,0,0.35364542,-72.346801,77.194606)" />
    <linearGradient
       inkscape:collect="always"
       xlink:href="#linearGradient907"
       id="linearGradient911"
       gradientUnits="userSpaceOnUse"
       x1="-232.11482"
       y1="157.14883"
       x2="-65.507881"
       y2="58.875015"
       gradientTransform="matrix(0.48771429,0,0,0.48058265,205.36737,19.925683)" />
  </defs>
  <sodipodi:namedview
     id="base"
     pagecolor="#ffffff"
     bordercolor="#666666"
     borderopacity="1.0"
     inkscape:pageopacity="0.0"
     inkscape:pageshadow="2"
     inkscape:zoom="0.91936027"
     inkscape:cx="451.17343"
     inkscape:cy="652.36219"
     inkscape:document-units="mm"
     inkscape:current-layer="layer1"
     showgrid="false"
     inkscape:window-width="1366"
     inkscape:window-height="715"
     inkscape:window-x="-8"
     inkscape:window-y="-8"
     inkscape:window-maximized="1" />
  <metadata
     id="metadata5">
    <rdf:RDF>
      <cc:Work
         rdf:about="">
        <dc:format>image/svg+xml</dc:format>
        <dc:type
           rdf:resource="http://purl.org/dc/dcmitype/StillImage" />
        <dc:title></dc:title>
      </cc:Work>
    </rdf:RDF>
  </metadata>
  <g
     inkscape:label="Layer 1"
     inkscape:groupmode="layer"
     id="layer1">
    <path
       style="fill:url(#linearGradient901);fill-opacity:1;stroke-width:0.12051722"
       d="m 19.839344,162.89501 c -1.442892,-0.50098 -2.39297,-1.40441 -3.041606,-2.8923 -0.268384,-0.61564 -0.329412,-0.94534 -0.363555,-1.96396 -0.04212,-1.25683 -0.0095,-1.42568 0.518581,-2.67798 0.152679,-0.36212 0.277602,-0.68948 0.277602,-0.72747 0,-0.0379 0.18336,-0.4606 0.407471,-0.93914 0.22411,-0.47853 0.407471,-0.96802 0.407471,-1.08775 0,-0.11974 0.0434,-0.27105 0.09643,-0.33624 0.05304,-0.0652 0.271942,-0.56764 0.486442,-1.11659 0.214501,-0.54893 0.43235,-1.05905 0.484105,-1.13359 0.05175,-0.0745 0.167581,-0.3587 0.257386,-0.63146 0.0898,-0.27276 0.269216,-0.74512 0.398692,-1.04968 0.129477,-0.30455 0.423427,-0.99584 0.653219,-1.53618 0.229797,-0.54036 0.41781,-1.03273 0.41781,-1.09418 0,-0.0615 0.202254,-0.57375 0.449452,-1.13844 0.247197,-0.5647 0.59343,-1.4197 0.769408,-1.90002 0.17598,-0.48033 0.45131,-1.18209 0.611851,-1.55948 0.16054,-0.3774 0.475024,-1.1353 0.698857,-1.68424 0.223829,-0.54893 0.453496,-1.05139 0.510371,-1.11658 0.05688,-0.0652 0.103416,-0.19886 0.103416,-0.29704 0,-0.15282 0.857443,-2.32627 1.818437,-4.60937 0.152423,-0.36212 0.277129,-0.68279 0.277129,-0.7126 0,-0.0299 0.183361,-0.46817 0.407471,-0.97414 0.22411,-0.50596 0.407471,-1.00214 0.407471,-1.10263 0,-0.10047 0.0434,-0.23604 0.09643,-0.30122 0.05304,-0.0652 0.272926,-0.56765 0.488631,-1.1166 0.215705,-0.54893 0.454995,-1.11034 0.531753,-1.24757 0.07675,-0.13724 0.177898,-0.38988 0.224753,-0.56141 0.04685,-0.17155 0.288058,-0.78065 0.536012,-1.35354 0.247954,-0.57291 0.450824,-1.11697 0.450824,-1.20904 0,-0.0921 0.04857,-0.19954 0.107927,-0.23886 0.05935,-0.0393 0.171718,-0.28123 0.249683,-0.53759 0.07797,-0.25635 0.2606,-0.74682 0.405853,-1.0899 0.145251,-0.34308 0.452006,-1.06589 0.681679,-1.60624 0.229671,-0.54034 0.417583,-1.03429 0.417583,-1.09764 0,-0.0634 0.235753,-0.6522 0.523891,-1.30855 0.288143,-0.65635 0.523893,-1.21292 0.523893,-1.23681 0,-0.0239 0.183363,-0.45743 0.40747,-0.96338 0.224111,-0.50597 0.407471,-1.00216 0.407471,-1.10264 0,-0.10048 0.04383,-0.23604 0.09739,-0.30122 0.05357,-0.0652 0.217411,-0.42729 0.364103,-0.8047 0.146691,-0.37738 0.4172,-1.02845 0.601132,-1.4468 0.183931,-0.41835 0.33442,-0.84222 0.33442,-0.94192 0,-0.0997 0.04383,-0.23463 0.09739,-0.29982 0.05356,-0.0652 0.21741,-0.42729 0.364103,-0.80469 0.146693,-0.3774 0.417203,-1.02845 0.601131,-1.44679 0.183932,-0.41835 0.334419,-0.81675 0.334419,-0.88534 0,-0.0686 0.0733,-0.28771 0.162893,-0.48695 0.08959,-0.19923 0.376197,-0.83946 0.636901,-1.4227 0.402806,-0.90115 0.653765,-1.25254 1.670728,-2.33932 0.658196,-0.70338 1.316459,-1.36762 1.462803,-1.4761 0.146342,-0.10846 0.874064,-0.42071 1.617156,-0.69389 l 1.35108,-0.49669 1.991871,0.0505 c 2.319746,0.0588 2.969866,0.22055 4.504459,1.12096 1.439386,0.84454 2.948647,2.6468 3.367891,4.02171 0.0837,0.27446 0.240298,0.66747 0.348013,0.87331 0.107717,0.20586 0.264883,0.59884 0.349264,0.87331 0.08437,0.27446 0.241544,0.66746 0.34926,0.87331 0.107715,0.20584 0.264883,0.59883 0.34926,0.87331 0.08438,0.27446 0.241548,0.66745 0.34926,0.8733 0.107716,0.20585 0.262751,0.59171 0.344525,0.85748 0.08177,0.26577 0.293462,0.77816 0.47042,1.13866 0.176957,0.36049 0.388646,0.87287 0.470419,1.13865 0.08178,0.26577 0.23681,0.65162 0.344522,0.85748 0.107715,0.20584 0.264883,0.59883 0.349263,0.87331 0.08437,0.27447 0.241545,0.66745 0.34926,0.8733 0.107716,0.20585 0.264883,0.59883 0.349259,0.87331 0.08438,0.27447 0.24155,0.66745 0.349265,0.87331 0.107712,0.20584 0.264879,0.59884 0.349259,0.8733 0.08438,0.27447 0.241548,0.66746 0.349261,0.87331 0.107715,0.20585 0.262751,0.59173 0.344524,0.85748 0.08178,0.26577 0.293462,0.77816 0.47042,1.13864 0.176958,0.36051 0.388646,0.8729 0.47042,1.13866 0.08176,0.26576 0.236809,0.65163 0.344521,0.85748 0.107715,0.20585 0.264883,0.59884 0.349263,0.8733 0.08437,0.27448 0.241545,0.66746 0.34926,0.87331 0.107715,0.20586 0.264883,0.59885 0.34926,0.87331 0.08438,0.27447 0.241548,0.66747 0.349263,0.87332 0.107712,0.20584 0.262748,0.59171 0.344521,0.85748 0.08178,0.26575 0.293462,0.77816 0.47042,1.13865 0.176958,0.36049 0.386056,0.86427 0.464665,1.11952 0.07861,0.25524 0.21545,0.61303 0.304095,0.7951 0.08864,0.18206 0.16149,0.40012 0.161886,0.4846 6.6e-4,0.18362 0.273197,0.25316 1.281341,0.32719 0.416203,0.0306 0.887706,0.084 1.047785,0.11868 0.160077,0.0347 0.893527,0.13169 1.629884,0.21551 1.220014,0.13889 2.144212,0.38103 3.085141,0.80834 0.192092,0.0873 0.599457,0.22855 0.905254,0.31403 0.305798,0.0854 0.583935,0.20385 0.618081,0.26306 0.03414,0.0592 0.162732,0.10764 0.285746,0.10764 0.123015,0 0.578326,0.14785 1.011806,0.32853 1.287681,0.53675 1.931551,0.81078 2.301609,0.97955 0.192092,0.0875 0.768373,0.31133 1.280622,0.49718 1.470586,0.53352 1.571675,0.58412 1.571675,0.78683 0,0.10529 -0.133637,0.37919 -0.296972,0.60866 -0.213689,0.30023 -0.389559,0.41724 -0.627087,0.41724 -0.181562,0 -0.944491,0.33685 -1.6954,0.74854 -0.750906,0.41171 -1.484354,0.74857 -1.629882,0.74857 -0.145532,0 -0.87898,0.33684 -1.629885,0.74854 -0.750909,0.41171 -1.477214,0.74835 -1.614009,0.7481 -0.325167,-7.1e-4 -2.542368,1.18067 -2.809254,1.49671 -0.278213,0.32943 -0.188912,0.98326 0.277255,2.02997 0.19929,0.44749 0.362561,0.86172 0.362833,0.92053 2.31e-4,0.0588 0.127985,0.37621 0.28382,0.70535 0.155832,0.32916 0.342229,0.78968 0.414215,1.02342 0.07198,0.23374 0.258378,0.69428 0.414212,1.02342 0.155834,0.32914 0.283552,0.64898 0.283819,0.71076 0.0014,0.28185 0.666878,1.52916 1.015364,1.9026 0.426225,0.45676 0.614612,0.88287 0.61578,1.39286 3.3e-4,0.18424 0.104851,0.5034 0.232072,0.70925 0.127219,0.20585 0.231652,0.51865 0.232074,0.69513 9.93e-4,0.37973 0.309589,1.39699 0.584072,1.92479 0.107053,0.20584 0.263679,0.59884 0.348056,0.87331 0.08438,0.27446 0.241548,0.66745 0.349264,0.8733 0.107715,0.20585 0.258686,0.57852 0.335488,0.82814 0.0768,0.24964 0.320717,0.83912 0.542029,1.30997 0.221315,0.47085 0.40255,1.02855 0.402748,1.23933 6.61e-4,0.6617 -0.34552,1.52148 -0.775356,1.9259 l -0.406952,0.3829 -5.151049,-0.0361 -5.151049,-0.0361 -0.48175,-0.34177 c -0.389507,-0.27632 -0.582899,-0.56609 -1.010003,-1.51334 -0.290533,-0.64437 -0.528247,-1.20471 -0.528247,-1.2452 0,-0.0405 -0.125835,-0.37005 -0.279637,-0.73231 -0.153798,-0.36227 -0.500913,-1.22009 -0.771363,-1.90626 -0.27045,-0.68617 -0.583495,-1.47216 -0.695659,-1.74661 -0.112162,-0.27447 -0.478624,-1.17274 -0.814367,-1.99613 -0.335743,-0.82341 -0.735089,-1.79352 -0.887432,-2.15578 -0.152346,-0.36227 -0.276995,-0.68369 -0.276995,-0.71424 0,-0.0306 -0.157167,-0.42328 -0.349259,-0.87274 -0.192093,-0.44945 -0.34926,-0.86434 -0.34926,-0.92199 0,-0.0576 -0.10858,-0.25273 -0.24129,-0.43352 -0.338381,-0.46099 -0.74598,-0.42234 -1.796066,0.17032 -0.48632,0.27445 -1.006747,0.49902 -1.15651,0.49902 -0.149761,0 -0.886671,0.33685 -1.63758,0.74855 -0.75091,0.4117 -1.484358,0.74855 -1.629886,0.74855 -0.145528,0 -0.878977,0.33685 -1.629886,0.74855 -0.750906,0.4117 -1.484354,0.74855 -1.629885,0.74855 -0.145529,0 -0.878977,0.33684 -1.629882,0.74855 -0.75091,0.41171 -1.484358,0.74855 -1.629887,0.74855 -0.145531,0 -0.878979,0.33685 -1.629885,0.74855 -0.750909,0.4117 -1.48782,0.74855 -1.637581,0.74855 -0.149763,0 -0.670189,0.22457 -1.156509,0.49903 -0.486316,0.27447 -1.025796,0.4994 -1.198839,0.49986 -0.173044,3.5e-4 -0.471793,0.11237 -0.663886,0.24869 -0.192096,0.13633 -0.443818,0.24825 -0.559384,0.2487 -0.22386,7e-4 -0.739689,0.23204 -2.234706,1.00144 -0.512249,0.26364 -1.062338,0.51572 -1.222415,0.56021 -0.345792,0.0961 -0.787541,0.30286 -2.03176,0.95106 -0.509173,0.26527 -0.998225,0.4823 -1.086791,0.4823 -0.182594,0 -1.589409,0.67883 -3.038,1.46592 -0.536716,0.29162 -1.050388,0.53021 -1.141486,0.53021 -0.189229,0 -1.053836,0.38385 -1.689397,0.75003 -0.236792,0.13642 -0.524934,0.24996 -0.64031,0.25228 -0.115378,0.003 -0.419334,0.11269 -0.675459,0.24529 -0.648361,0.33559 -1.753784,0.3166 -2.804567,-0.0483 z m 16.716804,-20.40025 c 0.03201,-0.0486 0.241572,-0.16319 0.465681,-0.25457 0.224107,-0.0914 0.824261,-0.38295 1.333675,-0.6479 0.509415,-0.26496 1.046404,-0.48174 1.193309,-0.48174 0.146908,0 0.267104,-0.0429 0.267104,-0.0953 0,-0.0917 0.470099,-0.33484 1.455257,-0.75255 0.256125,-0.1086 0.622849,-0.29889 0.81494,-0.42286 0.192094,-0.12399 0.493334,-0.22565 0.669418,-0.22589 0.176087,-2.6e-4 0.320156,-0.0429 0.320156,-0.0947 0,-0.0931 0.192525,-0.19747 1.105994,-0.59978 0.256125,-0.1128 0.732683,-0.33964 1.059018,-0.50406 0.326333,-0.16442 0.70179,-0.29896 0.834345,-0.29896 0.132556,0 0.258474,-0.0444 0.279815,-0.0986 0.04202,-0.10673 1.142282,-0.68024 1.602475,-0.83527 0.155676,-0.0525 0.443816,-0.20042 0.640313,-0.32884 0.196499,-0.1284 0.501339,-0.23366 0.677426,-0.23394 0.176083,-2.4e-4 0.320153,-0.0462 0.320153,-0.10193 0,-0.0557 0.184497,-0.17906 0.409985,-0.27387 0.225493,-0.0948 0.494855,-0.27288 0.598581,-0.3957 0.174047,-0.2061 0.172565,-0.26918 -0.0192,-0.81778 -0.114294,-0.32695 -0.409847,-1.06319 -0.656791,-1.6361 -0.24694,-0.57291 -0.448983,-1.06247 -0.448983,-1.08794 0,-0.0254 -0.130974,-0.35313 -0.291053,-0.72817 -0.160078,-0.37503 -0.291049,-0.70943 -0.291049,-0.74313 0,-0.0337 -0.183364,-0.48666 -0.40747,-1.00659 -0.22411,-0.51993 -0.407475,-0.97175 -0.407475,-1.00405 0,-0.0322 -0.157166,-0.42645 -0.34926,-0.8759 -0.192091,-0.44945 -0.349259,-0.84218 -0.349259,-0.87274 0,-0.0662 -0.485245,-1.23999 -0.884287,-2.13912 -0.156577,-0.35279 -0.518193,-0.87209 -0.803591,-1.15401 -0.491782,-0.48578 -0.556782,-0.51257 -1.243425,-0.51257 h -0.724515 l -0.661968,0.72946 c -0.435497,0.4799 -0.688818,0.8747 -0.740461,1.15401 -0.04317,0.23351 -0.304893,0.92984 -0.581597,1.54738 -0.716225,1.59848 -0.879699,2.00973 -0.879699,2.21304 0,0.0986 -0.205161,0.62341 -0.455913,1.16634 -0.651679,1.41105 -0.941131,2.1315 -0.941131,2.34253 0,0.1011 -0.20764,0.62351 -0.46142,1.16086 -0.60517,1.28138 -0.935624,2.10514 -0.935624,2.33237 0,0.1011 -0.206397,0.62351 -0.458661,1.16086 -0.857335,1.82622 -1.404067,3.12554 -1.404067,3.3368 0,0.11588 -0.102678,0.41832 -0.228182,0.67207 -0.75846,1.53355 -0.762066,1.70304 -0.03377,1.58613 0.304147,-0.0488 0.579192,-0.12857 0.61121,-0.17721 z"
       id="path21"
       inkscape:connector-curvature="0" />
    <path
       style="fill:url(#linearGradient911);fill-opacity:1;stroke-width:0.1517759"
       d="m 109.6772,99.424689 c -0.36464,-0.07983 -1.02757,-0.21453 -1.47323,-0.299315 -2.03023,-0.386247 -5.44514,-1.795201 -6.76048,-2.789312 -0.23655,-0.178773 -0.4709,-0.325049 -0.52077,-0.325049 -0.0498,0 -0.37111,-0.191696 -0.71386,-0.425993 -0.342759,-0.234296 -0.772402,-0.511609 -0.954768,-0.616245 -0.392035,-0.224938 -1.583793,-1.255411 -2.592231,-2.241425 -1.175421,-1.149276 -3.779321,-4.542882 -3.779321,-4.925499 0,-0.055 -0.185401,-0.394153 -0.412003,-0.753649 -1.044756,-1.657476 -2.450183,-5.228754 -2.69646,-6.851864 -0.0821,-0.541107 -0.228396,-1.084983 -0.325095,-1.208607 -0.243828,-0.311715 -0.336494,-22.760001 -0.0982,-23.787986 0.344209,-1.48489 1.316116,-3.280626 2.468435,-4.56078 0.917586,-1.019383 1.329436,-1.342113 2.446067,-1.91674 1.781645,-0.916853 2.226095,-1.026101 4.178643,-1.027127 l 1.657363,-8.44e-4 v 14.070983 14.070984 l 0.45394,1.526428 c 0.24967,0.839539 0.75156,2.170252 1.11531,2.957149 0.55993,1.211279 0.89319,1.680986 2.17288,3.062465 1.85652,2.004198 3.06478,2.930314 4.43422,3.398782 0.3241,0.110879 0.66122,0.261768 0.74914,0.335327 0.0879,0.07355 0.80142,0.310657 1.58555,0.526895 3.01306,0.830918 5.79585,0.415935 9.20555,-1.372779 2.96845,-1.557237 5.40295,-4.552397 6.39753,-7.870858 0.78269,-2.61152 0.83676,-2.991146 0.89923,-6.312429 0.0383,-2.036161 0.12927,-3.419808 0.24941,-3.793008 0.14881,-0.462225 0.15238,-0.756553 0.0168,-1.380123 -0.11146,-0.512527 -0.17197,-2.459781 -0.17123,-5.510712 6.8e-4,-4.657465 0.006,-4.739433 0.41119,-6.376649 0.50186,-2.029779 1.08943,-3.126195 2.46924,-4.607721 1.16573,-1.251653 2.22258,-1.874105 4.07666,-2.401027 1.08414,-0.308104 1.51572,-0.323707 8.95347,-0.323707 7.43677,0 7.85494,0.01511 8.65273,0.31273 0.46108,0.172001 1.01112,0.312729 1.22232,0.312729 0.38938,0 1.71352,0.418767 1.98335,0.627244 0.0811,0.0626 0.41117,0.204158 0.73364,0.314562 0.7532,0.257855 2.73798,1.311248 3.68599,1.956282 0.40516,0.27565 1.11495,0.75381 1.57735,1.06258 1.08602,0.725185 4.53637,4.367876 5.61491,5.92791 0.46023,0.665674 0.83676,1.244939 0.83676,1.28726 0,0.04235 0.25192,0.517953 0.55981,1.056974 0.5355,0.937492 1.06074,2.02913 1.06074,2.204586 0,0.04552 0.20093,0.543501 0.44653,1.106667 0.47409,1.087165 1.19599,3.98194 1.44634,5.799763 0.41157,2.988504 0.34634,5.861656 -0.2077,9.147357 -0.58365,3.461401 -2.40459,7.774881 -4.52957,10.729791 -0.71839,0.998953 -4.21953,4.702732 -4.81632,5.095068 -0.20255,0.133171 -0.8442,0.566621 -1.42588,0.963225 -1.07978,0.736243 -4.11385,2.362468 -5.08028,2.722975 -0.62024,0.231366 -1.73503,0.531248 -2.99607,0.805952 -0.48616,0.105906 -1.16189,0.257124 -1.50162,0.336041 -0.33973,0.07892 -4.8312,0.143494 -9.98103,0.143494 -9.09981,0 -9.36334,-0.0083 -9.36334,-0.297001 0,-0.169583 0.39097,-0.655925 0.91134,-1.133645 1.64709,-1.512096 3.23909,-3.168087 3.85764,-4.012694 1.11095,-1.516992 1.8503,-2.607895 1.85543,-2.737652 0.003,-0.0705 0.18995,-0.422326 0.41592,-0.781821 0.22599,-0.3595 0.57073,-0.993739 0.76611,-1.409424 0.58016,-1.234376 0.43064,-1.198775 5.03417,-1.198775 3.06591,0 4.31473,-0.0571 5.01297,-0.229199 3.79677,-0.935815 6.58764,-2.856305 8.75616,-6.025401 1.1342,-1.65754 2.18568,-4.597616 2.41598,-6.75545 0.2435,-2.281446 -0.24027,-5.340773 -1.13099,-7.152354 -0.10806,-0.219779 -0.19687,-0.478525 -0.19738,-0.574988 -0.003,-0.662223 -3.24686,-4.692198 -4.49422,-5.584067 -0.90657,-0.648219 -2.49826,-1.416243 -3.9377,-1.900027 L 148.66876,59.26527 H 143.565 c -3.85458,0 -5.16353,0.04782 -5.34794,0.195453 -0.22145,0.177263 -0.24928,1.06143 -0.29898,9.499177 -0.0392,6.652875 -0.10644,9.526475 -0.23589,10.085541 -0.52078,2.248421 -0.6544,2.740686 -0.99741,3.674579 -0.20533,0.559005 -0.61094,1.544107 -0.90138,2.189111 -0.49635,1.102322 -0.82134,1.685692 -2.36449,4.244492 -0.63156,1.047209 -4.70454,5.450138 -5.04173,5.450138 -0.0949,0 -0.67836,0.374787 -1.29669,0.832869 -1.07693,0.797817 -3.69284,2.283721 -4.44753,2.526312 -0.19785,0.06361 -0.55863,0.208609 -0.80171,0.322246 -0.84455,0.394815 -1.85458,0.696796 -2.33057,0.696796 -0.26331,0 -0.85599,0.140731 -1.31706,0.312733 -0.75455,0.281482 -1.18825,0.310846 -4.34088,0.293952 -1.92641,-0.01026 -3.80089,-0.08411 -4.16551,-0.163947 z"
       id="path29"
       inkscape:connector-curvature="0" />
    <g
       id="g85"
       transform="matrix(1.0712219,0,0,1.0790501,87.878427,142.92963)">
      <path
         id="path56"
         d="M 0,0 H 80 V 80 H 0 Z"
         class="st0"
         inkscape:connector-curvature="0"
         style="fill:none" />
      <path
         id="path58"
         d="M 54.1,40 40,54.1 51.4,65.5 c 3.3,3.3 8.8,3.3 12.2,0 l 1.9,-1.9 c 3.3,-3.3 3.3,-8.8 0,-12.2 z"
         class="st1"
         inkscape:connector-curvature="0"
         style="fill:#3ebeb0" />
      <path
         id="path60"
         d="m 28.6,14.5 c -3.3,-3.3 -8.8,-3.3 -12.2,0 l -1.9,1.9 c -3.3,3.3 -3.3,8.8 0,12.2 L 40,54.1 54.1,40 Z"
         class="st2"
         inkscape:connector-curvature="0"
         style="fill:#35beef" />
      <path
         id="path62"
         d="m 14.5,51.4 c -3.3,3.3 -3.3,8.8 0,12.2 l 1.9,1.9 c 3.3,3.3 8.8,3.3 12.2,0 L 40,54.1 25.9,40 Z"
         class="st3"
         inkscape:connector-curvature="0"
         style="fill:#0086aa" />
      <path
         id="path64"
         d="m 65.5,28.6 c 3.3,-3.3 3.3,-8.8 0,-12.2 l -1.9,-1.9 c -3.3,-3.3 -8.8,-3.3 -12.2,0 L 40,25.9 54.1,40 Z"
         class="st4"
         inkscape:connector-curvature="0"
         style="fill:#f3bd19" />
      <path
         id="path66"
         d="M 40,32.1 C 33,32.1 25.9,40 25.9,40 L 40,54.1 54.1,40 C 54.1,40 47,32.1 40,32.1 Z"
         class="st5"
         inkscape:connector-curvature="0"
         style="fill:#353535" />
      <path
         id="path68"
         d="m 38.8,46.4 h 19.9 v 4.9 H 38.8 Z"
         class="st6"
         transform="rotate(-45.098,48.776,48.842)"
         inkscape:connector-curvature="0"
         style="fill:#37a595" />
    </g>
    <path
       style="fill:none;stroke:#000000;stroke-width:3.12235212;stroke-linecap:butt;stroke-linejoin:miter;stroke-miterlimit:4;stroke-dasharray:none;stroke-opacity:1"
       d="m 170.19507,94.951606 c 63.30311,46.705734 1.42415,88.265244 1.42415,88.265244 l 0.29871,-0.40221"
       id="path913"
       inkscape:connector-curvature="0" />
    <path
       style="fill:none;stroke:#000000;stroke-width:3.371;stroke-linecap:butt;stroke-linejoin:miter;stroke-miterlimit:4;stroke-dasharray:none;stroke-opacity:1"
       d="M 81.771958,64.80062 C 46.916555,58.67457 44.562761,93.75003 44.562761,93.75003 v 0 0"
       id="path915"
       inkscape:connector-curvature="0" />
    <path
       inkscape:connector-curvature="0"
       id="path917"
       d="m 39.690482,165.98682 c 5.336876,36.75555 53.548636,28.0652 53.548636,28.0652 v 0 0"
       style="fill:none;stroke:#000000;stroke-width:3.08432007;stroke-linecap:butt;stroke-linejoin:miter;stroke-miterlimit:4;stroke-dasharray:none;stroke-opacity:1" />
    <path
       style="fill:#000000;stroke:#000000;stroke-width:0.26458332px;stroke-linecap:butt;stroke-linejoin:miter;stroke-opacity:1;fill-opacity:1"
       d="M 39.687501,85.144344 53.48363,87.412202 43.776687,97.82728 Z"
       id="path919"
       inkscape:connector-curvature="0" />
    <path
       inkscape:connector-curvature="0"
       id="path925"
       d="m 171.56021,174.65552 7.28211,11.93514 -14.22619,-0.56157 z"
       style="fill:#000000;fill-opacity:1;stroke:#000000;stroke-width:0.26458332px;stroke-linecap:butt;stroke-linejoin:miter;stroke-opacity:1"
       inkscape:transform-center-x="0.0461505"
       inkscape:transform-center-y="-1.7403732" />
    <path
       inkscape:transform-center-y="-0.0113332"
       inkscape:transform-center-x="-1.838854"
       style="fill:#000000;fill-opacity:1;stroke:#000000;stroke-width:0.26458332px;stroke-linecap:butt;stroke-linejoin:miter;stroke-opacity:1"
       d="m 87.115127,201.60743 -1.045633,-13.94214 12.408513,6.98056 z"
       id="path927"
       inkscape:connector-curvature="0" />
    <path
       inkscape:connector-curvature="0"
       id="path929"
       d="m 35.550334,175.5297 1.609627,-13.88833 10.864655,9.20102 z"
       style="fill:#000000;fill-opacity:1;stroke:#000000;stroke-width:0.26458332px;stroke-linecap:butt;stroke-linejoin:miter;stroke-opacity:1"
       inkscape:transform-center-x="-1.6612095"
       inkscape:transform-center-y="-0.7377482" />
    <ellipse
       style="fill:#000000;fill-opacity:1;stroke-width:3.37100005;stroke-miterlimit:4;stroke-dasharray:none"
       id="path1213"
       cx="82.398804"
       cy="64.639137"
       rx="3.4017856"
       ry="3.6852679" />
    <ellipse
       style="fill:#000000;fill-opacity:1;stroke-width:3.37100005;stroke-miterlimit:4;stroke-dasharray:none"
       id="path1215"
       cx="171.22322"
       cy="95.727676"
       rx="3.5907736"
       ry="3.4017856" />
    <text
       xml:space="preserve"
       style="font-style:normal;font-variant:normal;font-weight:normal;font-stretch:normal;font-size:5.27377892px;line-height:1.25;font-family:'OCR A Std';-inkscape-font-specification:'OCR A Std';text-align:center;letter-spacing:0px;word-spacing:0px;text-anchor:middle;fill:#000000;fill-opacity:1;stroke:none;stroke-width:0.28252384"
       x="87.895569"
       y="65.890831"
       id="text4922"
       transform="scale(0.78745032,1.2699214)"><tspan
         sodipodi:role="line"
         id="tspan4920"
         x="87.895569"
         y="65.890831"
         style="font-style:normal;font-variant:normal;font-weight:normal;font-stretch:normal;font-size:5.27377892px;font-family:'OCR A Std';-inkscape-font-specification:'OCR A Std';stroke-width:0.28252384">title_pass</tspan></text>
    <flowRoot
       xml:space="preserve"
       id="flowRoot4924"
       style="font-style:normal;font-variant:normal;font-weight:normal;font-stretch:normal;font-size:21.33333397px;line-height:1.25;font-family:'OCR A Std';-inkscape-font-specification:'OCR A Std';text-align:center;letter-spacing:0px;word-spacing:0px;text-anchor:middle;fill:#000000;fill-opacity:1;stroke:none"
       transform="matrix(0.23317057,0,0,0.40195797,-12.422488,-59.797628)"><flowRegion
         id="flowRegion4926"
         style="font-style:normal;font-variant:normal;font-weight:normal;font-stretch:normal;font-size:21.33333397px;font-family:'OCR A Std';-inkscape-font-specification:'OCR A Std'"><rect
           id="rect4928"
           width="436.17514"
           height="122.97009"
           x="534.06702"
           y="472.06738"
           style="font-style:normal;font-variant:normal;font-weight:normal;font-stretch:normal;font-size:21.33333397px;font-family:'OCR A Std';-inkscape-font-specification:'OCR A Std'" /></flowRegion><flowPara
         id="flowPara4930">UD_direct_pass</flowPara></flowRoot>    <flowRoot
       xml:space="preserve"
       id="flowRoot4932"
       style="font-style:normal;font-variant:normal;font-weight:normal;font-stretch:normal;font-size:21.33333397px;line-height:1.25;font-family:'OCR A Extended';-inkscape-font-specification:'OCR A Extended';text-align:center;letter-spacing:0px;word-spacing:0px;text-anchor:middle;fill:#000000;fill-opacity:1;stroke:none"
       transform="matrix(0.30798097,0,0,0.58099697,-19.606753,-204.41443)"><flowRegion
         id="flowRegion4934"
         style="font-style:normal;font-variant:normal;font-weight:normal;font-stretch:normal;font-size:21.33333397px;font-family:'OCR A Extended';-inkscape-font-specification:'OCR A Extended'"><rect
           id="rect4936"
           width="182.79709"
           height="50.021671"
           x="217.54257"
           y="643.92603"
           style="font-style:normal;font-variant:normal;font-weight:normal;font-stretch:normal;font-size:21.33333397px;font-family:'OCR A Extended';-inkscape-font-specification:'OCR A Extended'" /></flowRegion><flowPara
         id="flowPara4938">AX_annotatrix</flowPara></flowRoot>  </g>
  <style
     id="style54">.st0{fill:none}.st1{fill:#3ebeb0}.st2{fill:#35beef}.st3{fill:#0086aa}.st4{fill:#f3bd19}.st5{fill:#353535}.st6{fill:#37a595}</style>
</svg>
