<svg xmlns="http://www.w3.org/2000/svg" xmlns:xlink="http://www.w3.org/1999/xlink" width="1000" height="1000" viewBox="0 0 1000 1000">
  <defs>
    <style>
      .cls-1 {
        fill: #252525;
        stroke: #171717;
        stroke-width: 8px;
        filter: url(#filter);
      }

      .cls-1, .cls-2, .cls-3 {
        stroke-linejoin: round;
        fill-rule: evenodd;
      }

      .cls-2 {
        fill: #7db3ff;
      }

      .cls-2, .cls-3 {
        stroke: #000;
        stroke-width: 10px;
      }

      .cls-3 {
        fill: #afa2ff;
      }

      .cls-4, .cls-7 {
        font-size: 281.77px;
        font-family: Righteous;
        text-transform: uppercase;
      }

      .cls-4 {
        fill: #729fcf;
      }

      .cls-5 {
        font-size: 126.796px;
      }

      .cls-5, .cls-6 {
        fill: #303030;
        font-family: Ubuntu;
        font-weight: 500;
      }

      .cls-6 {
        font-size: 101.096px;
      }

      .cls-7 {
        fill: #ff950e;
      }
    </style>
    <filter id="filter" x="455.906" y="187.469" width="89.719" height="527.875" filterUnits="userSpaceOnUse">
      <feFlood result="flood" flood-color="#2c2c2c"/>
      <feComposite result="composite" operator="in" in2="SourceGraphic"/>
      <feBlend result="blend" in2="SourceGraphic"/>
    </filter>
  </defs>
  <g style="fill: #252525; filter: url(#filter)">
    <path id="path" class="cls-1" d="M455.893,187.461h89.741V715.328H455.893V187.461Z" style="stroke: inherit; filter: none; fill: inherit"/>
  </g>
  <use xlink:href="#path" style="stroke: #171717; filter: none; fill: none"/>
  <path id="Rounded_Rectangle_3" data-name="Rounded Rectangle 3" class="cls-2" d="M49.255,15.742H956.708a35,35,0,0,1,35,35V269.1a35,35,0,0,1-35,35H49.255a35,35,0,0,1-35-35V50.742A35,35,0,0,1,49.255,15.742Z"/>
  <path id="Rounded_Rectangle_4" data-name="Rounded Rectangle 4" class="cls-3" d="M198.609,695.966H807.354a35,35,0,0,1,35,35V949.322a35,35,0,0,1-35,35H198.609a35,35,0,0,1-35-35V730.966A35,35,0,0,1,198.609,695.966Z"/>
  <text id="U" class="cls-4" transform="translate(168.79 646.252) scale(1.479)">U</text>
  <text id="Annotate" class="cls-5" transform="translate(95.32 223.554) scale(1.479)">Annotate</text>
  <text id="VERB" class="cls-6" transform="translate(229.225 910.048) scale(2.133)">VERB</text>
  <text id="D" class="cls-7" transform="translate(548.52 646.295) scale(1.479)">D</text>
</svg>
